<svg width="38" height="36" viewBox="0 0 38 36" fill="none" xmlns="http://www.w3.org/2000/svg">
<path d="M29.2914 26.9999C27.1096 26.9999 25.3331 28.6829 25.3331 30.7498C25.3331 32.8168 27.1096 34.4998 29.2914 34.4998C31.4732 34.4998 33.2497 32.8168 33.2497 30.7499C33.2497 28.6829 31.4732 26.9999 29.2914 26.9999ZM29.2914 32.9999C27.982 32.9999 26.9164 31.9904 26.9164 30.7499C26.9164 29.5094 27.982 28.4999 29.2914 28.4999C30.6008 28.4999 31.6664 29.5094 31.6664 30.7499C31.6664 31.9903 30.6008 32.9999 29.2914 32.9999Z" fill="black"/>
<path d="M13.4582 26.9999C11.2764 26.9999 9.49994 28.6829 9.49994 30.7498C9.49994 32.8168 11.2764 34.4998 13.4582 34.4998C15.64 34.4998 17.4165 32.8168 17.4165 30.7498C17.4165 28.6829 15.6401 26.9999 13.4582 26.9999ZM13.4582 32.9999C12.1488 32.9999 11.0832 31.9904 11.0832 30.7499C11.0832 29.5094 12.1488 28.4999 13.4582 28.4999C14.7676 28.4999 15.8332 29.5094 15.8332 30.7499C15.8332 31.9903 14.7676 32.9999 13.4582 32.9999Z" fill="black"/>
<path d="M34.0414 23.9999H14.1849C12.3055 23.9999 10.6731 22.7324 10.3042 20.985L6.31744 2.10315C6.243 1.75215 5.91844 1.50015 5.54164 1.50015H0.791684C0.354688 1.50015 0 1.8361 0 2.2501C0 2.66409 0.354688 3.00011 0.791684 3.00011H4.89245L8.75097 21.2804C9.26716 23.7254 11.5534 25.4999 14.1849 25.4999H34.0413C34.4783 25.4999 34.833 25.1639 34.833 24.7499C34.833 24.3359 34.4784 23.9999 34.0414 23.9999Z" fill="black"/>
<path d="M37.8064 6.2581C37.656 6.09462 37.4375 6.00012 37.2079 6.00012H7.12494C6.68794 6.00012 6.33325 6.33614 6.33325 6.75014C6.33325 7.16413 6.68794 7.50008 7.12494 7.50008H36.2944L35.0151 16.0035C34.9644 16.3395 34.681 16.602 34.3264 16.6425L9.40647 19.5045C8.97103 19.5555 8.66229 19.929 8.71454 20.34C8.7636 20.721 9.10403 21 9.49984 21C9.53153 21 9.56315 20.9985 9.59484 20.9955L34.5147 18.1321C35.5786 18.0091 36.4273 17.2216 36.5793 16.2166L37.9916 6.85518C38.0249 6.64059 37.9569 6.42157 37.8064 6.2581Z" fill="black"/>
</svg>
