<svg width="38" height="36" viewBox="0 0 38 36" fill="none" xmlns="http://www.w3.org/2000/svg">
<path d="M37.7681 34.7197L26.2058 23.766C28.6074 21.2399 30.0834 17.9092 30.0834 14.25C30.0833 6.3926 23.3356 0 15.0417 0C6.74775 0 0 6.3926 0 14.25C0 22.1074 6.74775 28.5 15.0417 28.5C18.9043 28.5 22.4199 27.1017 25.0864 24.8266L36.6486 35.7803C36.8032 35.9267 37.0058 36 37.2084 36C37.4109 36 37.6135 35.9267 37.7681 35.7803C38.0773 35.4873 38.0773 35.0127 37.7681 34.7197ZM15.0417 27C7.62138 27 1.58338 21.2805 1.58338 14.25C1.58338 7.21955 7.62138 1.49998 15.0417 1.49998C22.462 1.49998 28.5 7.21948 28.5 14.25C28.5 21.2806 22.462 27 15.0417 27Z" fill="#191919"/>
</svg>
