<svg width="38" height="36" viewBox="0 0 38 36" fill="none" xmlns="http://www.w3.org/2000/svg">
<path d="M19 20.2773C7.58241 20.2773 1.29437 25.3944 1.29437 34.6861C1.29437 35.4118 1.91521 36 2.68122 36H35.3187C36.0847 36 36.7055 35.4118 36.7055 34.6861C36.7056 25.3949 30.4176 20.2773 19 20.2773ZM4.11854 33.3723C4.66405 26.425 9.66365 22.9051 19 22.9051C28.3363 22.9051 33.336 26.425 33.882 33.3723H4.11854Z" fill="black"/>
<path d="M19 0C13.7553 0 9.80051 3.82205 9.80051 8.8901C9.80051 14.1066 13.9274 18.3499 19 18.3499C24.0726 18.3499 28.1995 14.1066 28.1995 8.89052C28.1995 3.82205 24.2447 0 19 0ZM19 15.7226C15.4566 15.7226 12.5742 12.6578 12.5742 8.89052C12.5742 5.26163 15.2767 2.62772 19 2.62772C22.6637 2.62772 25.4258 5.31984 25.4258 8.89052C25.4258 12.6578 22.5434 15.7226 19 15.7226Z" fill="black"/>
</svg>
